# xmcd
# Copyright (C) 1995-1998 Ti Kan
#
# Track frame offsets:
#       150
#       14095
#       24314
#       31057
#       42287
#       57006
#       69335
#       83727
#       98718
#       111944
#       126042
#       136568
#       151583
#       176255
#       185486
#       201055
#       215688
#       229176
#
# Disc length: 3292 seconds
#
# Revision: 0
# Processed by: cddbd v1.5.2PL0 Copyright (c) Steve Scherf et al.
# Submitted via: CD-Transfer v1.0
#
DISCID=de0cda12
DTITLE=Phair, Liz - Liz Phair
DYEAR=93
DGENRE=
TTITLE0=6' 1''
TTITLE1=Help Me Mary
TTITLE2=Glory
TTITLE3=Dance Of The Seven Veils
TTITLE4=Never Said
TTITLE5=Soap Star Joe
TTITLE6=Explain It To Me
TTITLE7=Canary
TTITLE8=Mesmerizing
TTITLE9=Fuck And Run
TTITLE10=Girls! Girls! Girls!
TTITLE11=Divorce Song
TTITLE12=Shatter
TTITLE13=Flower
TTITLE14=Johnny Sunshine
TTITLE15=Gunshy
TTITLE16=Stratford-On-Guy
TTITLE17=Strange Loop
EXTD=
EXTT0=
EXTT1=
EXTT2=
EXTT3=
EXTT4=
EXTT5=
EXTT6=
EXTT7=
EXTT8=
EXTT9=
EXTT10=
EXTT11=
EXTT12=
EXTT13=
EXTT14=
EXTT15=
EXTT16=
EXTT17=
PLAYORDER=
